<svg xmlns="http://www.w3.org/2000/svg" viewBox="0 0 258.97 65.63"><defs><style>.cls-1{fill:#2ab782;}.cls-2{fill:#fff0d1;}.cls-3{fill:#002649;}</style></defs><title>资源 2</title><g id="图层_2" data-name="图层 2"><g id="图层_1-2" data-name="图层 1"><path class="cls-1" d="M28.31,65.54.41,49.66A.84.84,0,0,1,0,49V16.84a.65.65,0,0,1,.33-.56L28.31.09a.61.61,0,0,1,.64,0L57,16.36a.65.65,0,0,1,.32.56V48.75a1.24,1.24,0,0,1-.63,1.08L29,65.54A.61.61,0,0,1,28.31,65.54Z"/><polygon class="cls-2" points="9.43 32.94 4.7 24.75 28.63 10.93 38.45 16.53 9.43 32.94"/><polygon class="cls-3" points="14.15 41.13 9.43 32.94 38.45 16.53 38.45 27.21 14.15 41.13"/><polygon class="cls-2" points="18.88 49.32 14.15 41.13 38.45 27.21 47.49 32.99 18.88 49.32"/><polygon class="cls-3" points="23.61 57.51 18.88 49.32 47.49 32.99 47.49 43.63 23.61 57.51"/><path class="cls-3" d="M4.7,24.75.2,16.82a.41.41,0,0,1,.16-.56l28-16.2a.19.19,0,0,1,.28.17v10.7Z"/><path class="cls-2" d="M28.42,65.37l-4.8-7.85a0,0,0,0,1,0,0L47.49,43.64h0l9.44,5.58a.29.29,0,0,1,0,.5L29,65.52A.42.42,0,0,1,28.42,65.37Z"/><path class="cls-3" d="M78.23,21.05h3.66l7.74,18.18H85.48l-1.65-4H76.19l-1.65,4h-4Zm4.18,10.63L80,25.83l-2.4,5.85Z"/><path class="cls-3" d="M90.92,37.4l1.67-2.58A7.78,7.78,0,0,0,97,36.47c1.14,0,1.65-.41,1.65-1v0c0-.85-1.34-1.13-2.86-1.6-1.94-.56-4.13-1.47-4.13-4.15v-.05c0-2.81,2.27-4.38,5.06-4.38a9.5,9.5,0,0,1,5.15,1.6l-1.49,2.7a8.18,8.18,0,0,0-3.74-1.29c-1,0-1.44.42-1.44,1v.05c0,.77,1.31,1.13,2.81,1.65,1.93.64,4.17,1.57,4.17,4.1V35c0,3.07-2.29,4.46-5.28,4.46A9.63,9.63,0,0,1,90.92,37.4Z"/><path class="cls-3" d="M104.38,42.48l1.31-2.83a3.57,3.57,0,0,0,1.68.54,1.3,1.3,0,0,0,1.36-.9l-5.41-13.88h4.15l3.14,9.41,3-9.41h4.08l-5.32,14.16c-1,2.81-2.19,3.87-4.53,3.87A6.41,6.41,0,0,1,104.38,42.48Z"/><path class="cls-3" d="M120,25.41h3.91v2a4.91,4.91,0,0,1,4-2.22c3,0,4.7,2,4.7,5.14v8.94h-3.92V31.52c0-1.85-.88-2.81-2.38-2.81s-2.45,1-2.45,2.81v7.71H120Z"/><path class="cls-3" d="M135.42,32.4v0a7.09,7.09,0,0,1,7.24-7.2,6.78,6.78,0,0,1,5.52,2.33l-2.4,2.57a4,4,0,0,0-3.14-1.52,3.53,3.53,0,0,0-3.35,3.77v.05a3.54,3.54,0,0,0,3.5,3.82A4.37,4.37,0,0,0,146,34.7l2.3,2.32a7,7,0,0,1-5.65,2.52A7,7,0,0,1,135.42,32.4Z"/><path class="cls-3" d="M149.83,21.18h4.25l3.74,12.23,4.05-12.28h3.41l4,12.28,3.74-12.23h4.15l-6.16,18.18H167.6l-4.08-11.81-4.07,11.81H156Z"/><path class="cls-3" d="M177.39,32.4v0a7.26,7.26,0,0,1,7.51-7.2,7.19,7.19,0,0,1,7.45,7.15v.05a7.25,7.25,0,0,1-7.51,7.19A7.18,7.18,0,0,1,177.39,32.4Zm11.09,0v0a3.67,3.67,0,0,0-3.64-3.82,3.54,3.54,0,0,0-3.58,3.77v.05a3.67,3.67,0,0,0,3.64,3.82A3.54,3.54,0,0,0,188.48,32.4Z"/><path class="cls-3" d="M195.18,25.41h3.92V28.2c.8-1.91,2.09-3.15,4.41-3.05v4.1h-.21c-2.6,0-4.2,1.58-4.2,4.88v5.1h-3.92Z"/><path class="cls-3" d="M206,20.41h3.92v10l4.59-5h4.69l-5.26,5.44,5.44,8.38h-4.48l-3.61-5.64L209.88,35v4.2H206Z"/><path class="cls-3" d="M221.3,20.41h4.13v3.48H221.3Zm.1,5h3.92V39.23H221.4Z"/><path class="cls-3" d="M229,25.41h3.92v2a4.89,4.89,0,0,1,4-2.22c3,0,4.69,2,4.69,5.14v8.94h-3.92V31.52c0-1.85-.88-2.81-2.37-2.81s-2.45,1-2.45,2.81v7.71H229Z"/><path class="cls-3" d="M245.15,42,246.49,39a9,9,0,0,0,4.67,1.26c2.68,0,3.94-1.29,3.94-3.76v-.67a5.4,5.4,0,0,1-4.51,2.24,6.08,6.08,0,0,1-6.14-6.45v0a6.09,6.09,0,0,1,6.14-6.45,5.6,5.6,0,0,1,4.46,2.07V25.41H259v10.7c0,2.48-.59,4.28-1.75,5.44s-3.28,1.86-6,1.86A13.09,13.09,0,0,1,245.15,42Zm9.95-10.32v0a3.37,3.37,0,0,0-6.73,0v0a3.37,3.37,0,0,0,6.73,0Z"/></g></g></svg>