<svg xmlns="http://www.w3.org/2000/svg" viewBox="0 0 161.29 65.63"><defs><style>.cls-1{fill:#2ab782;}.cls-2{fill:#fff0d1;}.cls-3{fill:#002649;}</style></defs><title>资源 3</title><g id="图层_2" data-name="图层 2"><g id="图层_1-2" data-name="图层 1"><path class="cls-1" d="M28.31,65.54.41,49.66A.84.84,0,0,1,0,49V16.84a.65.65,0,0,1,.33-.56L28.31.09a.61.61,0,0,1,.64,0L57,16.36a.65.65,0,0,1,.32.56V48.75a1.24,1.24,0,0,1-.63,1.08L29,65.54A.61.61,0,0,1,28.31,65.54Z"/><polygon class="cls-2" points="9.43 32.94 4.7 24.75 28.63 10.93 38.45 16.53 9.43 32.94"/><polygon class="cls-3" points="14.15 41.13 9.43 32.94 38.45 16.53 38.45 27.21 14.15 41.13"/><polygon class="cls-2" points="18.88 49.32 14.15 41.13 38.45 27.21 47.49 32.99 18.88 49.32"/><polygon class="cls-3" points="23.61 57.51 18.88 49.32 47.49 32.99 47.49 43.63 23.61 57.51"/><path class="cls-3" d="M4.7,24.75.2,16.82a.41.41,0,0,1,.16-.56l28-16.2a.19.19,0,0,1,.28.17v10.7Z"/><path class="cls-2" d="M28.42,65.37l-4.8-7.85a0,0,0,0,1,0,0L47.49,43.64h0l9.44,5.58a.29.29,0,0,1,0,.5L29,65.52A.42.42,0,0,1,28.42,65.37Z"/><path class="cls-3" d="M80.28,15.55h3l6.21,14.61H86.11l-1.33-3.25H78.65l-1.33,3.25H74.07Zm3.36,8.54-1.93-4.71-1.92,4.71Z"/><path class="cls-3" d="M90.48,28.69l1.35-2.07a6.25,6.25,0,0,0,3.5,1.32c.91,0,1.33-.33,1.33-.83v0c0-.68-1.08-.91-2.31-1.28C92.8,25.33,91,24.6,91,22.45v0c0-2.26,1.82-3.53,4.06-3.53a7.71,7.71,0,0,1,4.15,1.29L98,22.35a6.45,6.45,0,0,0-3-1c-.77,0-1.16.33-1.16.77v0c0,.62,1.06.91,2.26,1.32,1.55.52,3.35,1.27,3.35,3.3v0c0,2.47-1.84,3.59-4.24,3.59A7.78,7.78,0,0,1,90.48,28.69Z"/><path class="cls-3" d="M101.3,32.77l1-2.28a2.9,2.9,0,0,0,1.35.44,1.06,1.06,0,0,0,1.1-.73l-4.35-11.15h3.33l2.53,7.57,2.43-7.57H112l-4.27,11.38c-.85,2.26-1.76,3.11-3.64,3.11A5.17,5.17,0,0,1,101.3,32.77Z"/><path class="cls-3" d="M113.88,19.05H117v1.58a3.9,3.9,0,0,1,3.25-1.79c2.38,0,3.77,1.58,3.77,4.13v7.19H120.9V24c0-1.49-.7-2.26-1.91-2.26s-2,.77-2,2.26v6.2h-3.15Z"/><path class="cls-3" d="M126.25,24.67v0a5.7,5.7,0,0,1,5.82-5.79,5.49,5.49,0,0,1,4.44,1.87l-1.93,2.07a3.24,3.24,0,0,0-2.53-1.22,2.83,2.83,0,0,0-2.69,3v.05a2.83,2.83,0,0,0,2.81,3.06,3.49,3.49,0,0,0,2.55-1.18l1.85,1.87a5.6,5.6,0,0,1-4.54,2A5.67,5.67,0,0,1,126.25,24.67Z"/><path class="cls-3" d="M73.57,35.74H77l3,9.82,3.26-9.86H86l3.26,9.86,3-9.82h3.34l-5,14.61H87.85l-3.28-9.49L81.3,50.35H78.52Z"/><path class="cls-3" d="M95.72,44.76v0a6,6,0,0,1,12,0v0a6,6,0,0,1-12,0Zm8.91,0v0a3,3,0,0,0-2.92-3.07,2.85,2.85,0,0,0-2.88,3v0a3,3,0,0,0,2.92,3.06A2.85,2.85,0,0,0,104.63,44.76Z"/><path class="cls-3" d="M110,39.14h3.15v2.24a3.44,3.44,0,0,1,3.54-2.45v3.3h-.16c-2.1,0-3.38,1.26-3.38,3.92v4.1H110Z"/><path class="cls-3" d="M118.68,35.12h3.15v8.06l3.69-4h3.77l-4.23,4.37,4.38,6.74h-3.61l-2.9-4.54-1.1,1.16v3.38h-3.15Z"/><path class="cls-3" d="M131,35.12h3.32v2.8H131Zm.08,4h3.15V50.25h-3.15Z"/><path class="cls-3" d="M137.21,39.14h3.15v1.58a3.91,3.91,0,0,1,3.25-1.79c2.39,0,3.77,1.58,3.77,4.13v7.19h-3.15v-6.2c0-1.49-.7-2.26-1.9-2.26s-2,.77-2,2.26v6.2h-3.15Z"/><path class="cls-3" d="M150.18,52.45l1.08-2.37a7.18,7.18,0,0,0,3.75,1c2.15,0,3.17-1,3.17-3v-.54a4.35,4.35,0,0,1-3.63,1.81,4.88,4.88,0,0,1-4.93-5.18v0a4.89,4.89,0,0,1,4.93-5.18,4.52,4.52,0,0,1,3.59,1.66V39.14h3.15v8.6a6,6,0,0,1-1.41,4.37c-1,1-2.63,1.5-4.79,1.5A10.62,10.62,0,0,1,150.18,52.45Zm8-8.29v0a2.71,2.71,0,0,0-5.41,0v0a2.54,2.54,0,0,0,2.69,2.57A2.57,2.57,0,0,0,158.18,44.16Z"/></g></g></svg>